<svg xmlns="http://www.w3.org/2000/svg" data-name="15001500 px Logo 6" viewBox="0 0 1020.2 491.07">
    <g data-name="Graphic Elements"><path d="M557 1.7h-6.9l-2.5.1c-.4.2-.7.3-1 .5-.7.3-1.5.6-2.2 1-5.2 2.4-10.4 4.9-15.6 7.4-6.6 3.3-13.2 6.8-19.8 10.1l-10.2 5.1c-10.1 4.9-20.5 9.4-31.3 13.1-32.1 11-61.6 29.2-92.3 44.2-2.7 1.3-6.2 4-8.4 3.2-13.5-4.3-19.4 5.1-26.7 12.5-22.4 23.2-43.2 47.8-67.2 69.7-14.3 13.2-23.6 28.9-28.2 47.2-3.8 15-7.6 30-11 45 21.9 0 40.9.2 42.6 1.1 1.1.6 2.5 6.1 4 13.9h1.3c.3-.8.7-1.5 1.2-2.4 0 0 0-.3.2-.4 1.7-2.8 2.5-6 3.7-9.1 11-28.2 28-51.9 53.4-70.5 51.4-37.2 105.3-70.7 159.3-104.2l23.4-14.4c.5-.3 1-.6 1.5-1 1.6-1 3.3-2.6 5.1-4 2-1.5 4-2.5 5.9-1.6l1.9-3.1 18.7-31.5 8.7-14.7.3-.6 10-16.9-18.1.2.2.1Zm-10.7 22.9-3.6 1.8a886 886 0 0 0-13.7 7c-5 2.5-9.9 5-14.9 7.5-5 2.6-10.1 5.2-15.1 7.7-38 19.3-75.9 38.8-113.9 58.3-1.7.8-3.5 1.9-5.2 2.7-2.2.9-4.3 1.5-5.5-1.6-.7-2.2-1.3-4.2 1.5-5.5 2-1 3.9-2.1 6-3.1 29.9-14.6 61.5-26.8 89.2-44.5 9.1-5.8 18.3-11.2 27.7-16.2 4.3-2.4 8.6-4.7 12.9-7 5.7-3 11.4-6 17.2-9 5.2-2.7 10.4-5.4 15.5-8.3 1.4-.8 2.8-1.5 4.2-2.3 2.2-1.2 4.5-2.1 6.8-3.2.5-.2 1.1 0 2.3.3-1.2 7.5-4.9 11.9-11.5 15.3l.1.1Z" style="fill:#fff;stroke-width:0"/><g style="isolation:isolate"><path d="M478.18 450.1v11.08c0 5.15-2.06 8.42-7.22 8.42h-17.52c-4.12 0-7.39-2.41-7.39-8.08v-39.6c0-5.58 2.06-8.16 6.87-8.16h18.21c5.5 0 7.04 2.75 7.04 8.42v7.73h-6.53v-9.62h-19.07v42.78h19.07V450.1h6.53ZM484.88 462.04v-26.8c0-4.81 2.92-6.36 6.79-6.36h15.89c5.15 0 6.7 3.09 6.7 8.16v24.83c0 4.47-2.06 7.73-7.47 7.73h-14.52c-4.21 0-7.39-2.23-7.39-7.56Zm22.85 1.37v-28.35h-16.32v28.35h16.32ZM521.47 428.88h6.1l.43 3.09c2.32-.86 8.08-3.44 14.35-3.44 5.24 0 7.47 2.49 7.47 7.9v33.16h-6.53v-34.53H528v34.53h-6.53v-40.72ZM556.86 462.56v-3.78h6.44v4.64h14.6v-8.59l-17.27-6.27c-2.83-1.12-3.78-2.49-3.78-5.93v-6.7c0-4.47 1.63-7.04 6.79-7.04h14.35c4.73 0 6.36 1.72 6.36 5.5v4.98h-6.44v-4.29h-14.6v7.9l17.01 6.18c3.52 1.46 4.04 2.23 4.04 6.27v7.56c0 3.69-1.89 6.62-6.7 6.62h-13.57c-5.24 0-7.22-2.23-7.22-7.04ZM591.48 461.7v-42.09h6.53v9.28h10.82l-.52 6.19H598v28.35h10.31v6.19h-9.79c-5.5 0-7.04-2.92-7.04-7.9ZM614.76 428.88h6.19l.34 3.26c1.63-1.03 7.04-3.61 12.89-3.61l-.69 6.87h-12.2v34.19h-6.53v-40.72ZM667.07 469.6h-6.1l-.34-2.83c-2.41.69-8.16 3.18-14.43 3.18-5.15 0-7.56-2.23-7.56-7.73v-33.33h6.53v34.53h15.38v-34.53h6.53v40.72ZM674.2 462.04v-26.8c0-4.81 2.92-6.36 6.79-6.36h15.55c4.81 0 6.36 3.09 6.36 8.16v4.64h-6.36v-6.61h-15.81v28.35h15.81v-8.33h6.36v6.27c0 4.47-2.06 8.25-7.39 8.25h-13.92c-4.21 0-7.39-2.23-7.39-7.56ZM709.76 461.7v-42.09h6.53v9.28h10.82l-.52 6.19h-10.31v28.35h10.31v6.19h-9.79c-5.5 0-7.04-2.92-7.04-7.9ZM733.04 415.99h6.53v6.96h-6.53v-6.96Zm0 12.89h6.53v40.72h-6.53v-40.72ZM746.78 462.04v-26.8c0-4.81 2.92-6.36 6.79-6.36h15.89c5.15 0 6.7 3.09 6.7 8.16v24.83c0 4.47-2.06 7.73-7.47 7.73h-14.52c-4.21 0-7.39-2.23-7.39-7.56Zm22.85 1.37v-28.35h-16.32v28.35h16.32ZM783.37 428.88h6.1l.43 3.09c2.32-.86 8.08-3.44 14.35-3.44 5.24 0 7.47 2.49 7.47 7.9v33.16h-6.53v-34.53H789.9v34.53h-6.53v-40.72ZM835.77 413.76h6.53v49.31h21.82v6.53h-28.35v-55.84ZM870.3 413.76h6.53v49.31h21.82v6.53H870.3v-55.84ZM936.45 450.1v11.08c0 5.15-2.06 8.42-7.22 8.42H911.7c-4.12 0-7.39-2.41-7.39-8.08v-39.6c0-5.58 2.06-8.16 6.87-8.16h18.21c5.5 0 7.04 2.75 7.04 8.42v7.73h-6.53v-9.62h-19.07v42.78h19.07V450.1h6.53Z" style="fill:#fff;stroke-width:0"/></g><path d="m516.3 65.9-1.1 1.9c.2 0 .3.1.5.2 1.1.6 1.7 1.6 1.9 2.7.1-1.9 0-3.6-1.3-4.8ZM386.7 290.8c-1.2-.2-2.4-.5-3.5-.8 1.2.3 2.3.5 3.5.8ZM661.3 128.2l-12.8-13.4V81.7h44.1v21.5l-31.3 25zM648.5 234.9l55.7 59.7-1.1 2.3H630V250l18.5-15.1zM765.6 1.1v15.7c-10.5-9.3-25.1-14.4-43.9-15.7h43.9ZM861.9 1.1h2v291.8h-2z" style="fill:#fff;stroke-width:0"/><path d="M1020.2 292.8v84.8H893.3L864 346l-62.3-67.1 59.2-112.5h-91.7l-3.6 7.1-22 43.4-31.9-34.2 53.8-43.9 21.6-17.6V79.4c0-29.3-6.9-50-21.6-62.6V1.1h96.3v291.8h158.3l.1-.1ZM781.9 377.6H717c21.5 0 33.6-9.3 43.4-23.2l5.2 5.5 16.3 17.7ZM611.6 76.1c-1.7-13.1-3.4-26.2-5-39.3-.2-2-.5-4-.7-6-.6-4.1-1.1-8.2-1.5-12.3-.5-3.6.6-7.6-.3-10.9-.1-.4-.3-.8-.5-1.2-1-2-1.9-3.7-2.8-5.5V.7c-.2-.3-.3-.5-.5-.7l-4.4.2-12.9.6-14.9.7-4.3 7.7-6.8 12.2-22.2 39.5-2.2 3.8c1.2 1.2 1.5 2.9 1.3 4.8.7 2.8-.4 6.6-.6 9.6-1.1 23.7-2.5 47.2-3.6 70.9-.4 8.2-.7 16.6-1.1 24.9-1.4 35.5-2.3 71.1-3.7 106.6-.1 3-1.2 5.9-3.2 8.3-4.1 5.6-12 9.3-19 8.4-.8 0-1.5-.2-2.2-.4l-10.8-3c-3-.8-5.9-1.7-8.9-2.5-.5-.2-1-.2-1.5-.4-11-3.1-22.1-6.2-33.2-9.2-4.9-1.4-9.8-2.8-14.7-4.1-3.7-1.1-6.8-2.6-9.7-5.3-2-2-4-3.9-6-5.9-6-6-12-11.8-19-16.5-5.9-4.1-12-7.5-16.5-12.5-.2 0-.4-.3-.5-.5-2.3-2.5-4-5.4-5.2-9-1.1-3.2-5-5.9-9.5-4-3.8 1.6-3.3 4.7-2.6 7.7 0 .4.2.7.3 1.1.5 1.7.8 3.4 1.2 5 0 .2.1.3.1.5 1.6 6.3 3.2 12.7 4.7 19.1l4.2 17.1c5.3 21.5 10.5 43 15.8 64.4 4.6 18.5 17.6 29.5 36.8 33.9 4.8 1.1 9.4 1.7 14 1.8 3.9.2 7.9 0 11.7-.6 10.7-1.4 21-5.2 30.7-10.7 2.6-1.4 5.1-3 7.6-4.7 17.1-11.5 33.8-23.5 50.4-35.5 4.3-3.1 7.1-6.8 8.3-11 .6-2 .8-4.2.7-6.4 0-1.7-.4-3.5-1-5.4-2.5-8.8-1.7-16.4 4.1-22.9 1.4-1.6 3.1-3.1 5.2-4.6 1-.7 2-1.5 3-2.3 5-3.8 9.5-8.2 14.4-12.1 5.1-4 5.8-8 .9-12.4-5.5-4.8-5.9-10.3-4.2-17 .5-1.8.9-3.7 1.4-5.5 1.3-5.1 2.6-10.1 3.9-15.1 4-15.5 8.1-31 13.3-46.3 1.3-3.5 2.3-7 3.4-10.6.4-1.5.8-2.9 1.2-4.4 2.4-9.3 4.2-18.8 6.2-28.2 1.4-7.2 2.9-14.6 4.5-21.8.5-2 .6-5 2.1-5.7 7.9-4.3 5-10.4 4.2-16.3l.1.1ZM454.2 299.6h-.5c-8-1.5-15.9-3-23.8-4.6-4.3-.8-8.7-1.6-13-2.4-4.3-.8-8.6-1.6-12.9-2.3-.4 0-.8-.2-1.2-.2-1.2-.2-2.4-.5-3.5-.9-8.6-2.7-13.4-8.5-15-17.7-.8-4.3-2.2-8.5-3.5-13.4 0-.2-.1-.4-.2-.6 7.5 1.2 13.2 3.4 16.6 8.9 1.7 2.5 3.5 4.9 5.4 7 4 4.4 8.5 8 13.7 10.8 5.2 2.9 11 4.9 17.5 6.2 4.1.8 8.2 1.7 12.3 2.8h.3c.6.2 1.2.3 1.6.5.5.2.9.2 1.3.4 10.3 2.8 20.5 6.5 30.4 10.2-8.6-1.5-17.2-3-25.7-4.5l.2-.2ZM572.3 20.7c1.2-.5 2.5-.8 4-1.1 2.9 0 5.3.8 6.9 2.2.4.3.7.6 1 1 1.2 1.4 1.8 3.4 2 5.8.3 5.8-3.3 9.3-9.1 9.8h-1.3c-.7 0-1.3 0-1.9-.1-2.4-.4-4.3-1.5-5.5-3.3-.9-1.3-1.5-3.1-1.6-5.1-.4-4.7 1.7-7.7 5.5-9.2Zm16.1 81.2c-2.7 12.5-6.1 24.9-8.6 37.4-.2 1.1-.5 2.3-.7 3.4-1.4 7.2-2.5 14.3-2.8 21.5-.8 17.7-5.6 34.4-9.3 51.4-.2 1-.4 2-.6 2.9-.4 1.6-.7 3.3-1 5.1-.4 2-1 4-1.8 6.7-3.5-2-3.5-4.3-3.1-6.7 0-.2 0-.4.2-.6.2-1 .4-1.9.6-2.9 1.2-5.7 2.3-11.4 3.5-17 2.6-12.8 5.3-25.6 7.9-38.4 1.6-7.8 3.2-15.6 4.9-23.5.2-1.1.5-2.2.7-3.4 2.7-13.6 5.5-27.2 8.3-40.8.2-.7.6-1.3 1.2-2.7 2 2.9.9 5.2.5 7.5l.1.1ZM331.6 463.6H59.5s-22.6-6.1-21.1-26.8 16.8-26.5 16.8-26.5c16.5-.5 258.2-8.2 277.9 0 6 2.5 10.4 7.1 10.4 7.1 1.5 1.5 10.1 10 8.7 22.4-2.3 20.4-20.6 23.9-20.6 23.9v-.1Z" style="fill:#fff;stroke-width:0"/><path d="M153.7 398.2h86.1v20.9h-86.1zM289 336.7c-.6-4.8-4.9-40.6-8.7-60.9-1.5-7.8-2.9-13.3-4-13.9-1.7-.8-20.6-1.1-42.6-1.1-32 0-70.4.5-70.4.5l-1.5 4.3 4.1 2.3-4.4 48.1h-18l-19.1-19.4-117.1.9s-4.1 8.7-4.1 12.2S0 394.6 0 394.6l2.3 1.7 151.2 1.7h135s1.2-54.8.3-61.4l.2.1Zm-85.6-3.1-13.5-1.1s-6.5-12.2-7.2-17.2.2-39.5 7.6-42.4l13-1.1v61.7l.1.1Zm71.7 25.2-4.6 8.7h-37.8l-15.2-33.2-.6-62.4h51.3s.5 1.6 1.2 4.1c2.4 8.1 7.6 25.7 9.4 30.9 2.4 6.7 5 51.7 5 51.7l-8.7.2Z" style="fill:#fff;stroke-width:0"/></g>
</svg>
