<svg width="152" height="70" viewBox="0 0 152 70" fill="none" xmlns="http://www.w3.org/2000/svg">
<path d="M82.9574 0.25319H81.9298L81.5574 0.268085C81.4979 0.297872 81.4532 0.312766 81.4085 0.342553C81.3042 0.387234 81.1851 0.431915 81.0808 0.491489C80.3064 0.848936 79.5319 1.22128 78.7574 1.59362C77.7745 2.08511 76.7915 2.60638 75.8085 3.09787C75.3021 3.35106 74.7957 3.60426 74.2893 3.85745C72.7851 4.58723 71.2362 5.25744 69.6276 5.80851C64.8468 7.44681 60.4532 10.1574 55.8808 12.3915C55.4787 12.5851 54.9574 12.9872 54.6298 12.8681C52.6191 12.2277 51.7404 13.6277 50.6532 14.7298C47.317 18.1851 44.2191 21.8489 40.6447 25.1106C38.5149 27.0766 37.1298 29.4149 36.4447 32.1404C35.8787 34.3745 35.3127 36.6085 34.8064 38.8425C38.0681 38.8425 40.8979 38.8723 41.1511 39.0064C41.3149 39.0957 41.5234 39.9149 41.7468 41.0766H41.9404C41.9851 40.9574 42.0447 40.8532 42.1191 40.7191C42.1191 40.7191 42.1191 40.6745 42.1489 40.6596C42.4021 40.2425 42.5213 39.766 42.7 39.3043C44.3383 35.1043 46.8702 31.5745 50.6532 28.8043C58.3085 23.2638 66.3362 18.2745 74.3787 13.2851C75.5404 12.5702 76.7021 11.8553 77.8638 11.1404C77.9383 11.0957 78.0128 11.0511 78.0872 10.9915C78.3255 10.8425 78.5787 10.6043 78.8468 10.3957C79.1447 10.1723 79.4425 10.0234 79.7255 10.1574L80.0085 9.69575L82.7936 5.00425L84.0893 2.81489L84.134 2.72553L85.6234 0.208511L82.9276 0.238296L82.9574 0.25319ZM81.3638 3.66383C81.1851 3.75319 81.0064 3.84255 80.8276 3.93192C80.1425 4.27447 79.4723 4.61702 78.7872 4.97447C78.0425 5.34681 77.3128 5.71915 76.5681 6.09149C75.8234 6.47872 75.0638 6.86596 74.3191 7.2383C68.6596 10.1128 63.0149 13.017 57.3553 15.9213C57.1021 16.0404 56.834 16.2043 56.5808 16.3234C56.2532 16.4574 55.9404 16.5468 55.7617 16.0851C55.6574 15.7574 55.5681 15.4596 55.9851 15.266C56.283 15.117 56.5659 14.9532 56.8787 14.8043C61.3319 12.6298 66.0383 10.8128 70.1638 8.1766C71.5191 7.31277 72.8893 6.50851 74.2893 5.76383C74.9298 5.40638 75.5702 5.06383 76.2106 4.72128C77.0596 4.27447 77.9085 3.82766 78.7723 3.38085C79.5468 2.97872 80.3213 2.5766 81.0808 2.14468C81.2893 2.02553 81.4979 1.92127 81.7064 1.80213C82.034 1.6234 82.3766 1.48936 82.7191 1.32553C82.7936 1.29575 82.883 1.32553 83.0617 1.37021C82.883 2.48723 82.3319 3.14255 81.3489 3.64893L81.3638 3.66383Z" fill="#E7AC3C"/>
<path d="M71.2213 67.0362V68.6894C71.2213 69.4638 70.9085 69.9404 70.1489 69.9404H67.5426C66.9319 69.9404 66.4404 69.583 66.4404 68.734V62.8362C66.4404 62.0021 66.7532 61.6149 67.4681 61.6149H70.1787C70.9979 61.6149 71.2213 62.0319 71.2213 62.866V64.0128H70.2532V62.583H67.4085V68.9574H70.2532V67.0213H71.2213V67.0362Z" fill="#0F47AF"/>
<path d="M72.2191 68.8234V64.8319C72.2191 64.117 72.6511 63.8787 73.2319 63.8787H75.6C76.3745 63.8787 76.5979 64.3404 76.5979 65.1V68.7936C76.5979 69.4638 76.2851 69.9404 75.4809 69.9404H73.3213C72.6957 69.9404 72.2191 69.6128 72.2191 68.8085V68.8234ZM75.6298 69.017V64.7872H73.2021V69.017H75.6298Z" fill="#0F47AF"/>
<path d="M77.6702 63.8787H78.5787L78.6383 64.3404C78.9808 64.2064 79.8447 63.834 80.783 63.834C81.7213 63.834 81.9 64.2064 81.9 65.0106V69.9553H80.9319V64.8021H78.6532V69.9553H77.6851V63.8936L77.6702 63.8787Z" fill="#0F47AF"/>
<path d="M82.9426 68.8979V68.3319H83.8958V69.017H86.0702V67.7362L83.4936 66.7979C83.0766 66.634 82.9277 66.4255 82.9277 65.9192V64.9213C82.9277 64.2511 83.166 63.8787 83.9404 63.8787H86.0851C86.7851 63.8787 87.0383 64.1319 87.0383 64.6979V65.4426H86.0851V64.8021H83.9106V65.9787L86.4426 66.9021C86.9638 67.1255 87.0383 67.2298 87.0383 67.8404V68.9723C87.0383 69.5234 86.7553 69.9553 86.0404 69.9553H84.0149C83.2404 69.9553 82.9426 69.6277 82.9426 68.9128V68.8979Z" fill="#0F47AF"/>
<path d="M88.1106 68.7638V62.4936H89.0787V63.8787H90.6872L90.6128 64.8021H89.0787V69.0319H90.6128V69.9553H89.1532C88.334 69.9553 88.1106 69.5234 88.1106 68.7787V68.7638Z" fill="#0F47AF"/>
<path d="M91.5808 63.8787H92.5042L92.5489 64.3702C92.7872 64.2213 93.5915 63.834 94.4702 63.834L94.3659 64.8617H92.5489V69.9553H91.5808V63.8936V63.8787Z" fill="#0F47AF"/>
<path d="M99.3702 69.9404H98.4617L98.417 69.5234C98.0596 69.6277 97.1957 70 96.2723 70C95.3489 70 95.1404 69.6723 95.1404 68.8532V63.8936H96.1085V69.0468H98.4021V63.8936H99.3702V69.9553V69.9404Z" fill="#0F47AF"/>
<path d="M100.428 68.8234V64.8319C100.428 64.117 100.86 63.8787 101.44 63.8787H103.764C104.479 63.8787 104.717 64.3404 104.717 65.1V65.7851H103.764V64.8021H101.411V69.0319H103.764V67.7957H104.717V68.734C104.717 69.4043 104.404 69.9702 103.615 69.9702H101.545C100.919 69.9702 100.443 69.6426 100.443 68.8383L100.428 68.8234Z" fill="#0F47AF"/>
<path d="M105.73 68.7638V62.4936H106.698V63.8787H108.306L108.232 64.8021H106.698V69.0319H108.232V69.9553H106.772C105.953 69.9553 105.73 69.5234 105.73 68.7787V68.7638Z" fill="#0F47AF"/>
<path d="M109.2 61.9574H110.168V63H109.2V61.9574ZM109.2 63.8787H110.168V69.9404H109.2V63.8787Z" fill="#0F47AF"/>
<path d="M111.255 68.8234V64.8319C111.255 64.117 111.687 63.8787 112.268 63.8787H114.636C115.411 63.8787 115.634 64.3404 115.634 65.1V68.7936C115.634 69.4638 115.321 69.9404 114.517 69.9404H112.357C111.732 69.9404 111.255 69.6128 111.255 68.8085V68.8234ZM114.651 69.017V64.7872H112.223V69.017H114.651Z" fill="#0F47AF"/>
<path d="M116.706 63.8787H117.615L117.674 64.3404C118.017 64.2064 118.881 63.834 119.819 63.834C120.757 63.834 120.936 64.2064 120.936 65.0106V69.9553H119.968V64.8021H117.689V69.9553H116.721V63.8936L116.706 63.8787Z" fill="#0F47AF"/>
<path d="M124.511 61.6298H125.479V68.9723H128.726V69.9404H124.496V61.6149L124.511 61.6298Z" fill="#0F47AF"/>
<path d="M129.664 61.6298H130.632V68.9723H133.879V69.9404H129.649V61.6149L129.664 61.6298Z" fill="#0F47AF"/>
<path d="M139.509 67.0362V68.6894C139.509 69.4638 139.196 69.9404 138.436 69.9404H135.83C135.219 69.9404 134.728 69.583 134.728 68.734V62.8362C134.728 62.0021 135.04 61.6149 135.755 61.6149H138.466C139.285 61.6149 139.509 62.0319 139.509 62.866V64.0128H138.54V62.583H135.696V68.9574H138.54V67.0213H139.509V67.0362Z" fill="#0F47AF"/>
<path d="M76.8957 9.8149L76.7319 10.0979C76.7617 10.0979 76.7766 10.1128 76.8064 10.1277C76.9702 10.217 77.0596 10.366 77.0894 10.5298C77.1042 10.2468 77.0894 9.99362 76.8957 9.8149Z" fill="#E7AC3C"/>
<path d="M57.5936 43.3106C57.4149 43.2809 57.2362 43.2362 57.0723 43.1915C57.2511 43.2362 57.4149 43.266 57.5936 43.3106Z" fill="#0F47AF"/>
<path d="M98.4915 19.0936L96.5851 17.0979V12.1681H103.153V15.3702L98.4915 19.0936Z" fill="#0F47AF"/>
<path d="M96.5851 34.9851L104.881 43.8766L104.717 44.2192H93.8298V37.2341L96.5851 34.9851Z" fill="#0F47AF"/>
<path d="M114.026 0.163849V2.50215C112.462 1.11704 110.287 0.357466 107.487 0.163849H114.026Z" fill="#0F47AF"/>
<path d="M128.666 0.163849H128.368V43.6234H128.666V0.163849Z" fill="#0F47AF"/>
<path d="M151.945 43.6085V56.2383H133.045L128.681 51.5319L119.402 41.5383L128.219 24.783H114.562L114.026 25.8404L110.749 32.3043L105.998 27.2107L114.011 20.6724L117.228 18.0511V11.8256C117.228 7.46172 116.2 4.37874 114.011 2.50215V0.163849H128.353V43.6234H151.93L151.945 43.6085Z" fill="#0F47AF"/>
<path d="M116.453 56.2383H106.787C109.989 56.2383 111.791 54.8532 113.251 52.783L114.026 53.6021L116.453 56.2383Z" fill="#0F47AF"/>
<path d="M91.0893 11.334C90.8362 9.38298 90.583 7.43192 90.3447 5.48085C90.3149 5.18298 90.2702 4.88511 90.2404 4.58724C90.151 3.9766 90.0766 3.36596 90.017 2.75532C89.9425 2.21915 90.1064 1.62341 89.9723 1.13192C89.9574 1.07234 89.9276 1.01277 89.8979 0.953195C89.7489 0.655323 89.6149 0.402131 89.4808 0.134046C89.4808 0.134046 89.4808 0.119151 89.4808 0.104257C89.4511 0.0595763 89.4362 0.0297872 89.4064 0L88.751 0.0297891L86.8298 0.119152L84.6106 0.223404L83.9702 1.37021L82.9574 3.18724L79.6511 9.07022L79.3234 9.63617C79.5021 9.8149 79.5468 10.0681 79.517 10.3511C79.6213 10.7681 79.4574 11.334 79.4276 11.7809C79.2638 15.3106 79.0553 18.8106 78.8915 22.3404C78.8319 23.5617 78.7872 24.8128 78.7276 26.0489C78.5191 31.3362 78.3851 36.6383 78.1766 41.9255C78.1617 42.3723 77.9979 42.8043 77.7 43.1617C77.0893 43.9957 75.9127 44.5468 74.8702 44.4128C74.751 44.4128 74.6468 44.383 74.5425 44.3532C74.0064 44.2043 73.4702 44.0553 72.934 43.9064C72.4872 43.7872 72.0553 43.6532 71.6085 43.534C71.534 43.5043 71.4596 43.5043 71.3851 43.4745C69.7468 43.0128 68.0936 42.5511 66.4404 42.1043C65.7106 41.8957 64.9808 41.6872 64.251 41.4936C63.7 41.3298 63.2383 41.1064 62.8064 40.7043C62.5085 40.4064 62.2106 40.1234 61.9127 39.8255C61.0191 38.9319 60.1255 38.0681 59.083 37.3681C58.2042 36.7574 57.2957 36.2511 56.6255 35.5064C56.5957 35.5064 56.5659 35.4617 56.551 35.4319C56.2085 35.0596 55.9553 34.6277 55.7766 34.0915C55.6127 33.6149 55.0319 33.2128 54.3617 33.4957C53.7957 33.734 53.8702 34.1957 53.9745 34.6426C53.9745 34.7021 54.0042 34.7468 54.0191 34.8064C54.0936 35.0596 54.1383 35.3128 54.1979 35.5511C54.1979 35.5809 54.2127 35.5957 54.2127 35.6255C54.451 36.5638 54.6893 37.517 54.9127 38.4702C55.1213 39.3191 55.3298 40.1681 55.5383 41.017C56.3276 44.2192 57.1021 47.4213 57.8915 50.6085C58.5766 53.3638 60.5127 55.0021 63.3723 55.6574C64.0872 55.8213 64.7723 55.9106 65.4574 55.9255C66.0383 55.9553 66.634 55.9255 67.2 55.8362C68.7936 55.6277 70.3276 55.0617 71.7723 54.2426C72.1596 54.034 72.5319 53.7957 72.9042 53.5426C75.451 51.8298 77.9383 50.0426 80.4106 48.2553C81.051 47.7936 81.4681 47.2426 81.6468 46.617C81.7362 46.3191 81.7659 45.9915 81.751 45.6638C81.751 45.4106 81.6915 45.1426 81.6021 44.8596C81.2298 43.5489 81.3489 42.417 82.2127 41.4489C82.4213 41.2106 82.6744 40.9872 82.9872 40.7638C83.1362 40.6596 83.2851 40.5404 83.434 40.4213C84.1787 39.8553 84.8489 39.2 85.5787 38.6191C86.3383 38.0234 86.4425 37.4277 85.7127 36.7723C84.8936 36.0574 84.834 35.2383 85.0872 34.2404C85.1617 33.9723 85.2213 33.6894 85.2957 33.4213C85.4893 32.6617 85.683 31.917 85.8766 31.1723C86.4723 28.8638 87.083 26.5553 87.8574 24.2766C88.051 23.7553 88.2 23.234 88.3638 22.6979C88.4234 22.4745 88.483 22.266 88.5425 22.0426C88.9 20.6574 89.1681 19.2426 89.4659 17.8426C89.6744 16.7702 89.8979 15.6681 90.1362 14.5957C90.2106 14.2979 90.2255 13.8511 90.4489 13.7468C91.6255 13.1064 91.1936 12.1979 91.0744 11.3191L91.0893 11.334ZM67.6468 44.6213C67.617 44.6213 67.5872 44.6213 67.5723 44.6213C66.3808 44.3979 65.2042 44.1745 64.0276 43.9362C63.3872 43.817 62.7319 43.6979 62.0915 43.5787C61.451 43.4596 60.8106 43.3404 60.1702 43.2362C60.1106 43.2362 60.0511 43.2064 59.9915 43.2064C59.8128 43.1766 59.634 43.1319 59.4702 43.0723C58.1893 42.6702 57.4745 41.8064 57.2362 40.4362C57.117 39.7957 56.9085 39.1702 56.7149 38.4404C56.7149 38.4106 56.7 38.3809 56.6851 38.3511C57.8021 38.5298 58.651 38.8574 59.1574 39.6766C59.4106 40.0489 59.6787 40.4064 59.9617 40.7192C60.5574 41.3745 61.2276 41.9106 62.0021 42.3277C62.7766 42.7596 63.6404 43.0574 64.6085 43.2511C65.2191 43.3702 65.8298 43.5043 66.4404 43.6681C66.4553 43.6681 66.4702 43.6681 66.4851 43.6681C66.5745 43.6979 66.6638 43.7128 66.7234 43.7426C66.7979 43.7723 66.8574 43.7723 66.917 43.8021C68.4511 44.2192 69.9702 44.7702 71.4447 45.3213C70.1638 45.0979 68.883 44.8745 67.617 44.6511L67.6468 44.6213ZM85.2362 3.08298C85.4149 3.00851 85.6085 2.96383 85.8319 2.91915C86.2638 2.91915 86.6213 3.0383 86.8596 3.24681C86.9191 3.29149 86.9638 3.33617 87.0085 3.39575C87.1872 3.60426 87.2766 3.90213 87.3064 4.25958C87.351 5.12341 86.8149 5.64468 85.951 5.71915C85.8766 5.71915 85.817 5.71915 85.7574 5.71915C85.6532 5.71915 85.5638 5.71915 85.4745 5.70426C85.117 5.64468 84.834 5.48085 84.6553 5.21277C84.5213 5.01915 84.4319 4.75107 84.417 4.4532C84.3574 3.7532 84.6702 3.30638 85.2362 3.08298ZM87.634 15.1766C87.2319 17.0383 86.7255 18.8851 86.3532 20.7468C86.3234 20.9106 86.2787 21.0894 86.2489 21.2532C86.0404 22.3255 85.8766 23.383 85.8319 24.4553C85.7128 27.0915 84.9979 29.5787 84.4468 32.1106C84.417 32.2596 84.3872 32.4085 84.3574 32.5426C84.2979 32.7809 84.2532 33.034 84.2085 33.3021C84.1489 33.6 84.0596 33.8979 83.9404 34.3C83.4191 34.0021 83.4191 33.6596 83.4787 33.3021C83.4787 33.2723 83.4787 33.2426 83.5085 33.2128C83.5383 33.0638 83.5681 32.9298 83.5979 32.7809C83.7766 31.9319 83.9404 31.083 84.1191 30.2489C84.5064 28.3426 84.9085 26.4362 85.2957 24.5298C85.534 23.3681 85.7723 22.2064 86.0255 21.0298C86.0553 20.866 86.1 20.7021 86.1298 20.5234C86.5319 18.4979 86.9489 16.4723 87.3659 14.4468C87.3957 14.3426 87.4553 14.2532 87.5447 14.0447C87.8425 14.4766 87.6787 14.8191 87.6191 15.1617L87.634 15.1766Z" fill="#0F47AF"/>
<path d="M49.3872 69.0468H8.8617C8.8617 69.0468 5.49574 68.1383 5.71914 65.0553C5.94255 61.9723 8.22127 61.1085 8.22127 61.1085C10.6787 61.034 46.6766 59.8872 49.6106 61.1085C50.5043 61.4809 51.1596 62.166 51.1596 62.166C51.383 62.3894 52.6638 63.6553 52.4553 65.5021C52.1128 68.5404 49.3872 69.0617 49.3872 69.0617V69.0468Z" fill="#E7AC3C"/>
<path d="M35.7149 59.3064H22.8915V62.4192H35.7149V59.3064Z" fill="#E7AC3C"/>
<path d="M43.0425 50.1468C42.9532 49.4319 42.3128 44.1 41.7468 41.0766C41.5234 39.9149 41.3149 39.0958 41.1511 39.0064C40.8979 38.8872 38.083 38.8426 34.8064 38.8426C30.0404 38.8426 24.3213 38.917 24.3213 38.917L24.0979 39.5575L24.7085 39.9L24.0532 47.0638H21.3723L18.5277 44.1745L1.08723 44.3085C1.08723 44.3085 0.476593 45.6043 0.476593 46.1255C0.476593 46.6468 0 58.7702 0 58.7702L0.342551 59.0234L22.8617 59.2766H42.9681C42.9681 59.2766 43.1468 51.1149 43.0128 50.1319L43.0425 50.1468ZM30.2936 49.6851L28.283 49.5213C28.283 49.5213 27.3149 47.7043 27.2106 46.9596C27.1064 46.2149 27.2404 41.0766 28.3426 40.6447L30.2787 40.4809V49.6702L30.2936 49.6851ZM40.9723 53.4383L40.2872 54.7341H34.6574L32.3936 49.7894L32.3043 40.4958H39.9447C39.9447 40.4958 40.0191 40.7341 40.1234 41.1064C40.4808 42.3128 41.2553 44.9341 41.5234 45.7085C41.8809 46.7064 42.2681 53.4085 42.2681 53.4085L40.9723 53.4383Z" fill="#E7AC3C"/>
</svg>
