<?xml version="1.0" standalone="no"?>
<!DOCTYPE svg PUBLIC "-//W3C//DTD SVG 20010904//EN"
 "http://www.w3.org/TR/2001/REC-SVG-20010904/DTD/svg10.dtd">
<svg version="1.0" xmlns="http://www.w3.org/2000/svg"
 width="1216.000000pt" height="1216.000000pt" viewBox="0 0 1216.000000 1216.000000"
 preserveAspectRatio="xMidYMid meet">
<metadata>
Created by potrace 1.14, written by Peter Selinger 2001-2017
</metadata>
<g transform="translate(0.000000,1216.000000) scale(0.100000,-0.100000)"
fill="#000000" stroke="none">
<path d="M6996 8873 c-1 -1 -108 -5 -237 -9 -273 -7 -198 17 -634 -199 -148
-74 -295 -145 -325 -159 -30 -13 -71 -30 -90 -39 -19 -8 -73 -29 -120 -45 -95
-33 -180 -66 -225 -86 -16 -8 -55 -24 -85 -37 -55 -23 -496 -245 -515 -259
-19 -14 -210 -109 -219 -109 -5 1 -12 -3 -15 -8 -3 -4 -36 -23 -73 -42 -63
-31 -71 -33 -121 -24 -92 16 -132 -2 -240 -111 -50 -51 -141 -146 -202 -211
-60 -65 -137 -148 -170 -183 -134 -145 -255 -270 -349 -361 -180 -175 -211
-206 -246 -251 -19 -25 -37 -47 -40 -50 -44 -40 -163 -307 -184 -411 -2 -13
-30 -126 -60 -250 -31 -124 -56 -233 -56 -241 0 -14 -44 -16 -363 -18 -481 -2
-476 -2 -487 -20 -15 -24 -12 -36 14 -49 18 -10 23 -20 20 -40 -5 -36 -13
-133 -19 -216 -3 -38 -7 -83 -9 -100 -3 -16 -8 -68 -12 -115 -4 -47 -8 -92 -9
-100 -1 -12 -22 -15 -109 -15 l-107 0 -114 115 -114 116 -428 -3 c-235 -2
-549 -4 -698 -6 l-270 -2 -23 -58 c-23 -59 -23 -56 -37 -442 -3 -88 -8 -207
-10 -265 -2 -58 -6 -168 -10 -246 -5 -121 -3 -143 10 -154 12 -10 91 -14 338
-16 177 -2 543 -6 812 -9 270 -3 529 -6 578 -6 l87 0 0 -60 0 -60 -48 1 c-53
1 -544 -11 -992 -24 -155 -5 -156 -5 -231 -80 -63 -63 -98 -152 -101 -256 -3
-120 67 -220 197 -281 l50 -24 1635 1 1635 0 41 22 c61 31 101 68 132 121 15
25 28 49 28 54 1 4 2 8 4 10 7 9 13 52 13 112 1 85 -30 159 -94 223 -37 38
-118 94 -144 98 -133 26 -335 36 -767 38 -175 1 -320 5 -324 9 -4 3 -7 26 -8
51 l-1 44 290 -1 290 -1 5 40 c8 62 5 692 -4 759 -4 33 -9 72 -11 87 -2 16 -6
45 -9 65 -3 21 -8 58 -11 83 -4 25 -8 56 -10 70 -2 14 -9 61 -15 105 -6 44
-13 91 -16 105 -2 14 -7 41 -9 60 -3 19 -8 45 -10 56 -3 12 2 27 9 33 8 7 33
60 56 119 110 279 235 475 425 668 91 92 157 147 302 249 65 46 123 88 128 93
6 5 24 17 40 28 17 10 32 21 35 24 3 3 12 10 21 15 9 6 157 104 330 219 336
223 345 229 459 301 41 26 91 58 110 70 144 94 372 235 379 235 4 0 16 9 26
20 10 11 22 20 26 20 8 0 139 79 149 90 3 3 17 12 32 20 16 8 93 56 174 105
80 50 160 98 177 109 18 10 34 21 37 25 9 13 74 55 87 57 7 1 14 -2 14 -7 3
-23 2 -59 -4 -119 -4 -36 -10 -119 -13 -185 -3 -66 -7 -154 -10 -195 -2 -41
-6 -127 -9 -190 -3 -63 -7 -153 -10 -200 -10 -196 -24 -531 -30 -745 -11 -340
-14 -416 -20 -590 -12 -327 -13 -342 -31 -376 -37 -74 -131 -131 -213 -131
-26 1 -165 34 -321 78 -151 42 -282 78 -290 79 -8 2 -15 4 -15 5 0 1 -7 3 -16
5 -49 9 -277 78 -302 91 -16 9 -61 47 -100 85 -147 144 -186 177 -299 252
-114 77 -173 136 -204 202 -27 61 -59 88 -95 81 -13 -3 -29 -5 -35 -5 -16 -1
-33 -45 -29 -72 2 -13 11 -53 20 -89 9 -36 18 -72 20 -80 6 -28 47 -196 91
-374 24 -99 46 -189 48 -200 2 -12 7 -28 10 -36 3 -8 8 -26 10 -40 3 -14 15
-63 26 -110 12 -47 23 -92 25 -100 45 -197 88 -347 115 -398 29 -53 90 -125
136 -161 41 -31 153 -90 184 -96 8 -2 35 -8 60 -15 115 -29 258 -31 389 -5 72
14 226 77 316 128 34 20 234 156 327 224 48 35 92 63 97 63 5 0 11 4 13 8 2 4
50 42 108 83 156 110 181 132 206 181 23 45 28 134 11 189 -8 25 -13 72 -12
105 3 93 32 138 155 237 74 59 137 113 182 158 40 39 47 50 42 75 -3 16 -20
45 -39 64 -40 42 -63 95 -58 133 5 44 11 82 13 82 1 0 3 7 5 15 2 8 11 43 20
77 9 35 18 71 20 82 2 10 18 70 35 132 18 63 34 123 36 134 2 11 13 52 24 90
12 39 23 77 25 85 2 8 8 27 14 43 6 15 13 38 15 50 3 12 18 60 34 107 27 77
46 145 42 152 -1 2 4 17 10 33 7 17 14 39 16 50 2 11 11 52 19 90 8 39 17 81
19 95 3 14 14 70 26 125 11 55 23 114 26 130 16 91 29 121 66 156 l38 36 -5
69 c-3 38 -7 80 -10 94 -3 14 -7 45 -10 70 -3 25 -8 60 -11 77 -3 18 -7 54
-10 80 -7 72 -13 125 -18 150 -3 12 -7 49 -11 82 -3 33 -8 70 -11 83 -3 13 -7
71 -9 131 -3 80 -10 120 -26 157 l-21 50 -80 -3 c-44 -1 -81 -3 -82 -4z m-363
-148 c-15 -45 -85 -125 -108 -125 -7 0 -15 -4 -17 -8 -1 -4 -122 -68 -268
-141 -146 -74 -346 -175 -445 -226 -99 -51 -272 -140 -385 -197 -290 -149
-625 -320 -765 -393 -66 -34 -128 -64 -137 -68 -22 -8 -57 27 -53 51 2 9 4 20
4 25 1 6 210 111 261 131 8 3 22 10 30 15 8 4 51 25 95 44 152 69 300 139 425
202 128 64 155 79 248 134 29 17 57 31 62 31 4 0 10 3 12 8 3 8 135 92 145 92
2 0 17 8 31 19 15 10 59 35 97 56 39 21 84 47 100 57 17 10 37 21 45 25 8 4
60 31 114 60 55 29 105 53 112 53 7 0 14 4 16 9 2 5 50 33 108 62 57 30 140
73 184 95 97 51 110 49 89 -11z m273 -88 c4 -4 14 -7 23 -7 9 0 25 -12 35 -27
32 -43 18 -134 -24 -161 -32 -20 -98 -23 -130 -7 -59 30 -74 123 -29 171 32
35 104 52 125 31z m108 -947 c-3 -19 -15 -73 -26 -120 -11 -47 -22 -93 -24
-103 -2 -10 -6 -27 -9 -37 -7 -23 -15 -56 -21 -95 -3 -16 -10 -48 -16 -70 -11
-44 -12 -50 -23 -115 -4 -25 -9 -54 -11 -65 -8 -45 -14 -95 -19 -175 -6 -85
-8 -100 -19 -175 -7 -44 -11 -66 -20 -105 -7 -34 -57 -256 -67 -305 -5 -22
-11 -51 -14 -65 -16 -79 -28 -120 -35 -120 -4 0 -14 10 -22 23 -15 23 -15 24
17 177 3 14 8 39 11 55 3 17 14 71 25 120 11 50 22 106 25 125 3 19 9 51 14
70 5 19 11 46 14 60 3 14 12 61 21 105 9 44 18 91 21 105 4 22 8 41 20 85 1 6
5 28 9 50 3 22 8 47 11 55 3 8 7 26 10 40 2 14 6 36 9 50 15 73 88 428 92 449
10 59 36 41 27 -19z m-2398 -1898 c48 -14 88 -47 140 -117 110 -149 268 -237
484 -271 35 -6 141 -35 215 -59 44 -15 85 -28 90 -29 6 -1 15 -4 20 -7 6 -3
29 -11 53 -19 23 -7 42 -17 42 -22 0 -5 -4 -7 -9 -4 -4 3 -26 8 -47 11 -54 7
-131 21 -224 41 -14 2 -47 9 -75 14 -50 9 -81 15 -132 25 -50 10 -78 16 -178
33 -33 6 -72 14 -88 17 -15 2 -55 10 -89 16 -140 24 -223 105 -242 234 -3 22
-12 62 -21 89 -23 74 -25 72 61 48z m-1723 -156 c8 9 290 5 299 -4 5 -5 31
-84 59 -178 28 -93 55 -182 60 -199 19 -59 20 -62 33 -175 16 -130 28 -301 30
-410 l1 -64 -48 -1 c-47 0 -49 -1 -75 -50 l-27 -50 -226 -2 -226 -2 -91 198
-91 199 -3 369 -3 368 128 2 c71 1 131 4 134 7 3 3 13 1 23 -4 10 -5 20 -7 23
-4z m-470 -358 c0 -196 -4 -361 -7 -367 -4 -5 -12 -8 -19 -6 -7 3 -39 6 -72 8
l-59 4 -27 54 c-58 116 -63 131 -62 219 0 77 7 187 18 265 7 55 28 120 47 147
19 28 50 35 142 34 l39 -1 0 -357z"/>
<path d="M8692 8858 c7 -4 24 -8 38 -8 51 -1 173 -39 255 -81 57 -28 108 -64
155 -109 38 -37 70 -70 70 -74 0 -4 11 -22 25 -40 45 -59 100 -208 120 -326 4
-19 9 -48 12 -65 3 -16 6 -185 8 -374 l4 -343 -32 -27 c-17 -14 -40 -33 -50
-41 -11 -8 -24 -19 -31 -25 -6 -5 -58 -48 -116 -95 -58 -46 -110 -89 -116 -95
-7 -5 -31 -26 -55 -45 -24 -19 -60 -48 -80 -65 -20 -16 -51 -41 -69 -55 -17
-14 -42 -34 -54 -45 -35 -30 -68 -57 -106 -86 -19 -15 -48 -39 -65 -53 -16
-15 -49 -41 -72 -59 -23 -18 -43 -38 -43 -45 0 -7 19 -32 43 -56 23 -24 82
-86 130 -139 48 -52 112 -121 141 -152 l53 -56 14 23 c8 13 46 86 84 163 39
77 72 142 75 145 3 3 34 64 70 135 l65 130 543 1 c298 0 542 -2 542 -6 0 -4
-11 -28 -25 -54 -14 -26 -57 -109 -96 -184 -39 -75 -88 -168 -109 -207 -92
-172 -239 -451 -279 -530 -17 -33 -66 -127 -110 -209 -59 -112 -76 -153 -67
-161 12 -13 177 -192 221 -240 16 -16 74 -79 131 -140 129 -138 232 -250 274
-295 27 -30 138 -149 255 -274 17 -18 68 -74 114 -124 l83 -91 757 0 756 0 0
504 1 505 -931 0 -932 0 0 1738 0 1737 -807 1 c-443 0 -801 -3 -794 -8z"/>
<path d="M7735 7903 c-6 -2 -10 -80 -9 -197 l1 -195 46 -48 c25 -26 59 -62 75
-79 l30 -31 43 33 c24 19 55 43 69 53 14 11 35 29 47 40 12 12 25 21 29 21 4
0 14 8 23 18 9 9 36 33 61 52 25 19 50 38 55 43 6 4 18 13 28 20 17 12 22 77
18 238 l-1 36 -253 0 c-139 -1 -257 -2 -262 -4z"/>
<path d="M7685 6048 c-22 -18 -42 -35 -45 -38 -3 -3 -25 -21 -50 -40 -92 -70
-85 -41 -83 -345 0 -149 1 -273 2 -276 1 -4 197 -6 436 -6 365 0 435 2 440 14
3 8 -1 20 -8 27 -6 7 -59 64 -117 126 -58 63 -125 135 -150 160 -25 26 -88 94
-140 150 -52 57 -129 139 -170 182 l-75 79 -40 -33z"/>
<path d="M9035 4624 c-28 -43 -123 -132 -170 -160 -53 -31 -131 -61 -177 -69
-18 -3 -34 -8 -37 -10 -2 -3 145 -4 328 -4 239 0 330 3 325 11 -4 6 -30 36
-58 66 -135 147 -179 192 -186 192 -4 0 -15 -12 -25 -26z"/>
<path d="M5340 3930 c-24 -24 -22 -3 -24 -320 -2 -272 3 -301 49 -317 29 -10
256 -11 282 -2 35 13 50 56 49 144 l-1 79 -37 4 -38 3 0 -78 0 -78 -113 0
-114 -1 0 249 c0 217 2 249 16 255 9 4 59 7 111 6 l95 -1 3 -54 c4 -60 12 -70
51 -60 25 7 26 10 25 81 -1 107 -7 110 -190 110 -131 0 -146 -2 -164 -20z"/>
<path d="M9959 3926 c0 -12 1 -73 1 -136 1 -63 1 -124 0 -135 -1 -19 -1 -107
1 -130 0 -5 0 -46 0 -90 0 -44 0 -87 1 -95 0 -8 -1 -19 -2 -25 -7 -28 5 -31
168 -30 l167 0 2 35 c1 19 -2 37 -7 40 -4 3 -63 5 -129 4 -81 -1 -121 3 -122
10 0 6 -1 138 -1 294 l0 283 -39 -3 c-32 -1 -39 -6 -40 -22z"/>
<path d="M10372 3618 l3 -333 168 0 167 0 0 37 c0 23 -5 38 -12 39 -7 0 -66 1
-130 2 l-118 0 0 294 0 293 -40 0 -40 0 2 -332z"/>
<path d="M10813 3940 c-12 -5 -24 -21 -28 -41 -4 -17 -7 -151 -7 -296 l-1
-265 27 -26 c25 -26 30 -26 153 -27 148 -2 176 5 193 46 12 29 17 160 6 177
-3 5 -20 9 -38 8 l-33 -1 0 -75 -1 -74 -114 -1 -115 -1 0 253 c0 218 2 253 15
254 23 1 183 1 200 0 12 -1 15 -13 14 -57 -1 -42 2 -54 12 -50 8 3 14 2 14 -3
0 -15 44 -4 50 13 3 10 3 47 -1 82 -9 91 -13 93 -184 93 -77 0 -150 -4 -162
-9z"/>
<path d="M8742 3920 c-4 -3 -7 -22 -7 -42 0 -37 1 -38 37 -38 21 0 38 5 39 10
1 6 1 21 1 35 0 14 0 29 -1 33 -1 8 -59 10 -69 2z"/>
<path d="M7083 3882 l-33 -3 0 -274 c0 -333 -5 -319 119 -321 l81 -1 0 38 0
37 -52 0 c-29 0 -57 0 -63 1 -8 1 -13 259 -6 327 1 6 24 10 58 10 53 -1 57 1
64 25 11 42 -2 51 -65 48 -33 -3 -56 0 -57 6 0 6 -2 31 -3 57 -1 26 -4 48 -6
50 -3 2 -20 2 -37 0z"/>
<path d="M8493 3882 c-29 -3 -33 -7 -34 -35 0 -18 0 -142 0 -276 0 -295 -5
-285 118 -285 l78 -1 0 35 0 35 -60 0 -60 0 0 171 0 170 62 -1 61 -1 4 38 3
37 -64 3 -65 3 -1 52 c0 29 -3 53 -5 55 -3 2 -20 2 -37 0z"/>
<path d="M6457 3774 c-1 -1 -20 -4 -42 -7 -22 -2 -59 -11 -82 -20 -41 -14 -43
-14 -43 5 0 16 -6 19 -37 16 l-38 -3 -1 -230 c0 -126 2 -235 4 -241 2 -7 19
-12 38 -12 33 0 34 1 35 42 0 22 1 115 2 206 l2 164 87 1 c70 1 87 -2 90 -15
2 -8 3 -101 3 -207 l-1 -192 38 1 38 0 1 57 c4 259 0 384 -15 405 -12 19 -68
40 -79 30z"/>
<path d="M9529 3768 c-11 -5 -35 -11 -52 -14 -17 -3 -37 -10 -45 -16 -10 -9
-14 -6 -19 10 -4 17 -13 22 -39 22 -30 0 -34 -3 -35 -27 -4 -129 -3 -453 1
-454 27 -8 70 -5 71 4 1 7 2 100 3 207 l1 194 88 1 c48 1 88 -2 88 -5 1 -3 3
-91 4 -195 1 -105 4 -196 8 -202 7 -12 66 -15 68 -4 1 3 2 104 3 224 1 206 0
219 -19 237 -22 20 -93 30 -126 18z"/>
<path d="M5799 3749 c-22 -22 -21 -5 -22 -204 0 -189 6 -230 36 -247 13 -7 68
-12 132 -13 116 -2 155 8 174 44 6 10 9 99 8 210 -3 245 7 232 -180 230 -112
-1 -132 -4 -148 -20z m251 -222 c0 -145 -2 -168 -15 -164 -8 4 -16 3 -19 -1
-5 -9 -145 -6 -154 3 -6 6 -10 302 -4 321 2 8 35 12 98 11 l94 0 0 -170z"/>
<path d="M6655 3750 c-14 -15 -19 -39 -20 -96 -2 -90 5 -102 88 -133 176 -65
163 -57 162 -105 0 -25 -3 -47 -6 -50 -11 -12 -79 -13 -79 -2 0 7 -3 8 -8 1
-6 -9 -18 -10 -70 -6 -7 1 -12 9 -11 19 3 36 -7 41 -72 33 -8 -1 -5 -59 5 -88
10 -31 29 -36 155 -38 103 -2 115 0 138 19 22 19 25 29 26 105 2 102 0 103
-147 156 l-104 37 2 46 1 47 85 0 c69 0 85 -3 85 -15 1 -27 13 -36 46 -36 30
1 32 3 34 41 1 29 -5 46 -21 62 -22 21 -32 23 -147 23 -112 0 -126 -2 -142
-20z"/>
<path d="M7329 3753 c-1 -10 -2 -118 -2 -241 -2 -217 -2 -223 19 -228 23 -6
46 -2 54 8 3 3 5 94 5 202 l-1 196 73 0 c63 0 73 2 74 18 0 9 2 27 5 40 4 22
1 23 -33 21 -21 -2 -52 -9 -70 -16 -42 -17 -53 -16 -53 2 0 23 -70 21 -71 -2z"/>
<path d="M7610 3558 c0 -117 3 -223 6 -235 3 -12 19 -27 35 -33 31 -13 117 -8
163 10 35 13 69 13 61 0 -7 -11 -4 -12 43 -14 l32 -2 0 243 0 243 -39 0 -39 0
0 -201 c0 -110 -3 -203 -6 -207 -4 -3 -45 -6 -91 -7 l-85 0 0 208 0 207 -40 0
-40 0 0 -212z"/>
<path d="M8059 3751 c-23 -18 -24 -23 -25 -207 -1 -203 5 -237 50 -253 31 -12
225 -10 251 3 28 13 43 57 41 116 -1 44 -1 45 -39 48 -32 2 -38 -1 -37 -15 1
-10 2 -34 1 -53 l-1 -35 -83 1 c-45 0 -88 3 -94 7 -7 5 -10 59 -9 169 l1 163
90 0 90 0 3 -37 c2 -24 8 -38 18 -39 62 -5 59 -8 58 56 -2 88 -15 95 -169 95
-106 0 -126 -3 -146 -19z"/>
<path d="M8735 3530 c0 -132 2 -240 5 -241 33 -6 70 -6 71 -1 0 4 1 114 2 245
l2 237 -40 0 -40 0 0 -240z"/>
<path d="M8927 3750 l-27 -21 0 -194 c0 -189 1 -195 23 -221 23 -26 28 -27
133 -29 112 -2 160 7 181 34 8 11 12 79 13 211 1 250 10 237 -171 240 -114 1
-128 -1 -152 -20z m243 -79 c1 -53 1 -237 1 -275 -1 -38 -1 -38 -36 -34 -19 2
-35 2 -35 -2 0 -7 -109 -4 -117 3 -7 8 -8 312 0 324 3 5 47 10 97 10 90 -1 90
-1 90 -26z"/>
</g>
</svg>
